<?xml version="1.0" encoding="utf-8"?>
<!-- Generator: Adobe Illustrator 22.1.0, SVG Export Plug-In . SVG Version: 6.00 Build 0)  -->
<svg version="1.1" id="Calque_1" xmlns="http://www.w3.org/2000/svg" xmlns:xlink="http://www.w3.org/1999/xlink" x="0px" y="0px"
	 viewBox="0 0 400 400" style="enable-background:new 0 0 400 400;" xml:space="preserve">
<style type="text/css">
	.st0{fill:#EAEAEA;}
</style>
<g>
	<polygon class="st0" points="400,265.5 400,251 392.1,258.2 	"/>
	<polygon class="st0" points="388.1,291.1 400,296 400,265.5 388.1,277.4 	"/>
	<polygon class="st0" points="291.8,341.7 275,348.7 281.9,365.3 294.9,370.6 304.6,360.9 304.6,347 	"/>
	<polygon class="st0" points="258.2,374.9 263.8,388.1 277.4,388.1 287.3,378.2 281.9,365.3 265.1,358.4 	"/>
	<polygon class="st0" points="234.6,365.3 229.2,378.2 239.1,388.1 252.7,388.1 258.2,374.9 251.4,358.4 	"/>
	<polygon class="st0" points="224.7,341.8 211.9,347 211.9,360.9 221.6,370.6 234.6,365.3 241.5,348.7 	"/>
	<polygon class="st0" points="221.6,312.9 211.9,322.6 211.9,336.5 224.7,341.8 241.5,334.8 234.6,318.2 	"/>
	<polygon class="st0" points="252.7,295.4 239.1,295.4 229.2,305.3 234.6,318.2 251.4,325.1 258.2,308.6 	"/>
	<polygon class="st0" points="258.2,308.6 265.1,325.1 281.9,318.2 287.3,305.3 277.4,295.4 263.8,295.4 	"/>
	<polygon class="st0" points="281.9,318.2 275,334.8 291.8,341.7 304.6,336.5 304.6,322.6 294.9,312.9 	"/>
	<polygon class="st0" points="304.6,322.6 314.4,332.5 326.7,327.4 332.2,314.2 322.6,304.6 304.6,304.6 	"/>
	<rect x="295.4" y="295.4" class="st0" width="9.1" height="9.1"/>
	<polygon class="st0" points="273.3,272.6 267.8,285.8 277.4,295.4 295.4,295.4 295.4,277.4 285.6,267.5 	"/>
	<polygon class="st0" points="349,200 341.8,192.1 334.5,200 341.8,207.9 	"/>
	<polygon class="st0" points="200,334.5 192.1,341.8 200,349 207.9,341.8 	"/>
	<polygon class="st0" points="251,400 265.5,400 258.2,392.1 	"/>
	<polygon class="st0" points="277.4,388.1 265.5,400 296.4,400 291.4,388.1 	"/>
	<polygon class="st0" points="225.1,388.1 225.1,394 218.5,400 211.9,394 211.9,388.1 206,388.1 200,381.5 194,388.1 188.1,388.1
		188.1,394 181.5,400 174.9,394 174.9,388.1 160.9,388.1 149,400 181.5,400 200,400 218.5,400 251,400 239.1,388.1 	"/>
	<polygon class="st0" points="211.9,374.9 211.9,360.9 200,349 188.1,360.9 188.1,374.9 194,374.9 200,381.5 206,374.9 	"/>
	<polygon class="st0" points="200,304 188.1,308.9 188.1,322.6 200,334.5 211.9,322.6 211.9,308.9 	"/>
	<polygon class="st0" points="388.1,370 388.1,381.3 377.5,376.9 382.1,388.1 370,388.1 377.4,395.5 366.4,400 400,400 400,364.6
		394.9,376.8 	"/>
	<polygon class="st0" points="388.1,336.1 400,364.6 400,296 388.1,300.9 	"/>
	<polygon class="st0" points="364.9,346.9 388.1,370 388.1,336.1 374.9,304.6 360.9,304.6 351.3,314.2 	"/>
	<polygon class="st0" points="340,322 326.7,327.4 321.6,339.6 345.9,364 377.5,376.9 364.9,346.9 	"/>
	<polygon class="st0" points="314.5,351 304.6,360.9 304.6,374.6 337.4,388.1 370,388.1 345.9,364 	"/>
	<polygon class="st0" points="301.4,388.1 296.4,400 366.4,400 337.4,388.1 	"/>
	<polygon class="st0" points="262.6,211.9 298.6,211.9 303.6,200 298.6,188.1 262.6,188.1 233.6,200 	"/>
	<polygon class="st0" points="254.1,236 285.5,248.9 295.4,239.1 295.4,225.4 262.6,211.9 230,211.9 	"/>
	<polygon class="st0" points="235.1,253.1 258.2,276.3 260,278 273.3,272.6 278.4,260.3 254.1,236 222.5,223 	"/>
	<polygon class="st0" points="211.9,263.9 225.1,295.4 239.1,295.4 248.7,285.8 235.1,253.1 211.9,230 	"/>
	<polygon class="st0" points="388.1,225.1 388.1,239.1 400,251 400,218.5 394,225.1 	"/>
	<polygon class="st0" points="360.9,211.9 374.9,211.9 374.9,206 381.5,200 374.9,194 374.9,188.1 360.9,188.1 349,200 	"/>
	<polygon class="st0" points="341.8,225.1 348.6,241.6 365.4,234.7 370.8,221.8 360.9,211.9 347.3,211.9 	"/>
	<polygon class="st0" points="375.3,258.2 388.1,253 388.1,239.1 378.4,229.4 365.4,234.7 358.5,251.3 	"/>
	<polygon class="st0" points="365.4,281.8 378.4,287.1 388.1,277.4 388.1,263.5 375.3,258.2 358.5,265.2 	"/>
	<polygon class="st0" points="341.8,291.4 347.3,304.6 360.9,304.6 370.8,294.7 365.4,281.8 348.6,274.9 	"/>
	<polygon class="st0" points="318.1,281.8 312.7,294.7 322.6,304.6 336.2,304.6 341.8,291.4 334.9,274.9 	"/>
	<polygon class="st0" points="295.4,263.5 295.4,277.4 305.1,287.1 318.1,281.8 325,265.2 308.2,258.2 	"/>
	<polygon class="st0" points="308.2,258.2 325,251.3 318.1,234.7 305.1,229.4 295.4,239.1 295.4,253 	"/>
	<polygon class="st0" points="318.1,234.7 334.9,241.6 341.8,225.1 336.2,211.9 322.6,211.9 312.7,221.8 	"/>
	<polygon class="st0" points="334.9,241.6 332,248.4 325,251.3 327.9,258.2 325,265.2 332,268 334.9,274.9 341.8,272 348.6,274.9
		351.5,268 358.5,265.2 355.6,258.2 358.5,251.3 351.5,248.4 348.6,241.6 341.8,244.4 	"/>
	<polygon class="st0" points="275,334.8 268,331.9 265.1,325.1 258.2,327.9 251.4,325.1 248.5,332 241.5,334.8 244.4,341.8
		241.5,348.7 248.5,351.6 251.4,358.4 258.2,355.6 265.1,358.4 268,351.6 275,348.7 272.1,341.8 	"/>
	<polygon class="st0" points="0,251 0,265.5 7.9,258.2 	"/>
	<polygon class="st0" points="11.9,277.4 0,265.5 0,296 11.9,291.1 	"/>
	<polygon class="st0" points="108.2,341.7 95.4,347 95.4,360.9 105.1,370.6 118.1,365.3 125,348.7 	"/>
	<polygon class="st0" points="118.1,365.3 112.7,378.2 122.6,388.1 136.2,388.1 141.8,374.9 134.9,358.4 	"/>
	<polygon class="st0" points="165.4,365.3 148.6,358.4 141.8,374.9 147.3,388.1 160.9,388.1 170.8,378.2 	"/>
	<polygon class="st0" points="175.3,341.8 158.5,348.7 165.4,365.3 178.4,370.6 188.1,360.9 188.1,347 	"/>
	<polygon class="st0" points="165.4,318.2 158.5,334.8 175.3,341.8 188.1,336.5 188.1,322.6 178.4,312.9 	"/>
	<polygon class="st0" points="170.8,305.3 160.9,295.4 147.3,295.4 141.8,308.6 148.6,325.1 165.4,318.2 	"/>
	<polygon class="st0" points="136.2,295.4 122.6,295.4 112.7,305.3 118.1,318.2 134.9,325.1 141.8,308.6 	"/>
	<polygon class="st0" points="118.1,318.2 105.1,312.9 95.4,322.6 95.4,336.5 108.2,341.7 125,334.8 	"/>
	<polygon class="st0" points="77.4,304.6 67.8,314.2 73.3,327.4 85.6,332.5 95.4,322.6 95.4,304.6 	"/>
	<rect x="95.4" y="295.4" class="st0" width="9.1" height="9.1"/>
	<polygon class="st0" points="126.7,272.6 114.4,267.5 104.6,277.4 104.6,295.4 122.6,295.4 132.2,285.8 	"/>
	<polygon class="st0" points="96.4,200 91.4,188.1 77.4,188.1 65.5,200 77.4,211.9 91.4,211.9 	"/>
	<polygon class="st0" points="134.5,400 149,400 141.8,392.1 	"/>
	<polygon class="st0" points="108.6,388.1 103.6,400 134.5,400 122.6,388.1 	"/>
	<polygon class="st0" points="30,388.1 17.9,388.1 22.5,376.9 11.9,381.3 11.9,370 5.1,376.8 0,364.6 0,400 33.6,400 22.6,395.5
		"/>
	<polygon class="st0" points="11.9,300.9 0,296 0,364.6 11.9,336.1 	"/>
	<polygon class="st0" points="48.7,314.2 39.1,304.6 25.1,304.6 11.9,336.1 11.9,370 35.1,346.9 	"/>
	<polygon class="st0" points="78.4,339.6 73.3,327.4 60,322 35.1,346.9 22.5,376.9 54.1,364 	"/>
	<polygon class="st0" points="54.1,364 30,388.1 62.6,388.1 95.4,374.6 95.4,360.9 85.5,351 	"/>
	<polygon class="st0" points="62.6,388.1 33.6,400 103.6,400 98.6,388.1 	"/>
	<polygon class="st0" points="145.9,236 170,211.9 137.4,211.9 104.6,225.4 104.6,239.1 114.5,248.9 	"/>
	<polygon class="st0" points="145.9,236 121.6,260.3 126.7,272.6 140,278 141.8,276.3 164.9,253.1 177.5,223 	"/>
	<polygon class="st0" points="164.9,253.1 151.3,285.8 160.9,295.4 174.9,295.4 188.1,263.9 188.1,230 	"/>
	<polygon class="st0" points="188.1,263.9 188.1,299.1 200,304 211.9,299.1 211.9,263.9 200,235.4 	"/>
	<polygon class="st0" points="11.9,225.1 6,225.1 0,218.5 0,251 11.9,239.1 	"/>
	<polygon class="st0" points="11.9,211.9 11.9,206 18.5,200 11.9,194 11.9,188.1 6,188.1 0,181.5 0,200 0,218.5 6,211.9 	"/>
	<polygon class="st0" points="58.2,225.1 52.7,211.9 39.1,211.9 29.2,221.8 34.6,234.7 51.4,241.6 	"/>
	<polygon class="st0" points="34.6,234.7 21.6,229.4 11.9,239.1 11.9,253 24.7,258.2 41.5,251.3 	"/>
	<polygon class="st0" points="24.7,258.2 11.9,263.5 11.9,277.4 21.6,287.1 34.6,281.8 41.5,265.2 	"/>
	<polygon class="st0" points="58.2,291.4 51.4,274.9 34.6,281.8 29.2,294.7 39.1,304.6 52.7,304.6 	"/>
	<polygon class="st0" points="81.9,281.8 65.1,274.9 58.2,291.4 63.8,304.6 77.4,304.6 87.3,294.7 	"/>
	<polygon class="st0" points="91.8,258.2 75,265.2 81.9,281.8 94.9,287.1 104.6,277.4 104.6,263.5 	"/>
	<polygon class="st0" points="104.6,253 104.6,239.1 94.9,229.4 81.9,234.7 75,251.3 91.8,258.2 	"/>
	<polygon class="st0" points="81.9,234.7 87.3,221.8 77.4,211.9 63.8,211.9 58.2,225.1 65.1,241.6 	"/>
	<polygon class="st0" points="65.1,274.9 68,268 75,265.2 72.1,258.2 75,251.3 68,248.4 65.1,241.6 58.2,244.4 51.4,241.6
		48.5,248.4 41.5,251.3 44.4,258.2 41.5,265.2 48.5,268 51.4,274.9 58.2,272 	"/>
	<polygon class="st0" points="158.5,348.7 155.6,341.8 158.5,334.8 151.5,332 148.6,325.1 141.8,327.9 134.9,325.1 132,331.9
		125,334.8 127.9,341.8 125,348.7 132,351.6 134.9,358.4 141.8,355.6 148.6,358.4 151.5,351.6 	"/>
	<polygon class="st0" points="400,149 400,134.5 392.1,141.8 	"/>
	<polygon class="st0" points="388.1,122.6 400,134.5 400,104 388.1,108.9 	"/>
	<polygon class="st0" points="291.8,58.3 304.6,53 304.6,39.1 294.9,29.4 281.9,34.7 275,51.3 	"/>
	<polygon class="st0" points="281.9,34.7 287.3,21.8 277.4,11.9 263.8,11.9 258.2,25.1 265.1,41.6 	"/>
	<polygon class="st0" points="234.6,34.7 251.4,41.6 258.2,25.1 252.7,11.9 239.1,11.9 229.2,21.8 	"/>
	<polygon class="st0" points="224.7,58.2 241.5,51.3 234.6,34.7 221.6,29.4 211.9,39.1 211.9,53 	"/>
	<polygon class="st0" points="234.6,81.8 241.5,65.2 224.7,58.2 211.9,63.5 211.9,77.4 221.6,87.1 	"/>
	<polygon class="st0" points="229.2,94.7 239.1,104.6 252.7,104.6 258.2,91.4 251.4,74.9 234.6,81.8 	"/>
	<polygon class="st0" points="263.8,104.6 277.4,104.6 287.3,94.7 281.9,81.8 265.1,74.9 258.2,91.4 	"/>
	<polygon class="st0" points="281.9,81.8 294.9,87.1 304.6,77.4 304.6,63.5 291.8,58.3 275,65.2 	"/>
	<polygon class="st0" points="304.6,77.4 304.6,95.4 322.6,95.4 332.2,85.8 326.7,72.6 314.4,67.5 	"/>
	<rect x="295.4" y="95.4" class="st0" width="9.1" height="9.1"/>
	<polygon class="st0" points="267.8,114.2 273.3,127.4 285.6,132.5 295.4,122.6 295.4,104.6 277.4,104.6 	"/>
	<polygon class="st0" points="303.6,200 308.6,211.9 322.6,211.9 334.5,200 322.6,188.1 308.6,188.1 	"/>
	<polygon class="st0" points="265.5,0 251,0 258.2,7.9 	"/>
	<polygon class="st0" points="291.4,11.9 296.4,0 265.5,0 277.4,11.9 	"/>
	<polygon class="st0" points="222.5,177 211.9,181.3 211.9,170 205.1,176.8 200,164.6 194.9,176.8 188.1,170 188.1,181.3 177.5,177
		182.1,188.1 170,188.1 177.4,195.5 166.4,200 177.4,204.5 170,211.9 182.1,211.9 177.5,223 188.1,218.7 188.1,230 194.9,223.2
		200,235.4 205.1,223.2 211.9,230 211.9,218.7 222.5,223 217.9,211.9 230,211.9 222.6,204.5 233.6,200 222.6,195.5 230,188.1
		217.9,188.1 	"/>
	<polygon class="st0" points="366.4,0 377.4,4.5 370,11.9 382.1,11.9 377.5,23.1 388.1,18.7 388.1,30 394.9,23.2 400,35.4 400,0
		"/>
	<polygon class="st0" points="388.1,99.1 400,104 400,35.4 388.1,63.9 	"/>
	<polygon class="st0" points="351.3,85.8 360.9,95.4 374.9,95.4 388.1,63.9 388.1,30 364.9,53.1 	"/>
	<polygon class="st0" points="321.6,60.4 326.7,72.6 340,78 364.9,53.1 377.5,23.1 345.9,36 	"/>
	<polygon class="st0" points="304.6,25.4 304.6,39.1 314.5,49 345.9,36 370,11.9 337.4,11.9 	"/>
	<polygon class="st0" points="337.4,11.9 366.4,0 296.4,0 301.4,11.9 	"/>
	<polygon class="st0" points="254.1,164 230,188.1 262.6,188.1 295.4,174.6 295.4,160.9 285.5,151.1 	"/>
	<polygon class="st0" points="258.2,123.7 235.1,146.9 222.5,177 254.1,164 278.4,139.7 273.3,127.4 260,122 	"/>
	<polygon class="st0" points="235.1,146.9 248.7,114.2 239.1,104.6 225.1,104.6 211.9,136.1 211.9,170 	"/>
	<polygon class="st0" points="211.9,136.1 211.9,100.9 200,96 188.1,100.9 188.1,136.1 200,164.6 	"/>
	<polygon class="st0" points="388.1,174.9 394,174.9 400,181.5 400,149 388.1,160.9 	"/>
	<polygon class="st0" points="388.1,188.1 388.1,194 381.5,200 388.1,206 388.1,211.9 394,211.9 400,218.5 400,200 400,181.5
		394,188.1 	"/>
	<polygon class="st0" points="341.8,174.9 347.3,188.1 360.9,188.1 370.8,178.2 365.4,165.3 348.6,158.4 	"/>
	<polygon class="st0" points="365.4,165.3 378.4,170.6 388.1,160.9 388.1,147 375.3,141.8 358.5,148.7 	"/>
	<polygon class="st0" points="375.3,141.8 388.1,136.5 388.1,122.6 378.4,112.9 365.4,118.2 358.5,134.8 	"/>
	<polygon class="st0" points="341.8,108.6 348.6,125.1 365.4,118.2 370.8,105.3 360.9,95.4 347.3,95.4 	"/>
	<polygon class="st0" points="318.1,118.2 334.9,125.1 341.8,108.6 336.2,95.4 322.6,95.4 312.7,105.3 	"/>
	<polygon class="st0" points="308.2,141.8 325,134.8 318.1,118.2 305.1,112.9 295.4,122.6 295.4,136.5 	"/>
	<polygon class="st0" points="295.4,147 295.4,160.9 305.1,170.6 318.1,165.3 325,148.7 308.2,141.8 	"/>
	<polygon class="st0" points="318.1,165.3 312.7,178.2 322.6,188.1 336.2,188.1 341.8,174.9 334.9,158.4 	"/>
	<polygon class="st0" points="334.9,125.1 332,132 325,134.8 327.9,141.8 325,148.7 332,151.6 334.9,158.4 341.8,155.6 348.6,158.4
		351.5,151.6 358.5,148.7 355.6,141.8 358.5,134.8 351.5,132 348.6,125.1 341.8,128 	"/>
	<polygon class="st0" points="241.5,51.3 244.4,58.2 241.5,65.2 248.5,68 251.4,74.9 258.2,72.1 265.1,74.9 268,68.1 275,65.2
		272.1,58.2 275,51.3 268,48.4 265.1,41.6 258.2,44.4 251.4,41.6 248.5,48.4 	"/>
	<polygon class="st0" points="0,134.5 0,149 7.9,141.8 	"/>
	<polygon class="st0" points="11.9,108.9 0,104 0,134.5 11.9,122.6 	"/>
	<polygon class="st0" points="108.2,58.3 125,51.3 118.1,34.7 105.1,29.4 95.4,39.1 95.4,53 	"/>
	<polygon class="st0" points="141.8,25.1 136.2,11.9 122.6,11.9 112.7,21.8 118.1,34.7 134.9,41.6 	"/>
	<polygon class="st0" points="165.4,34.7 170.8,21.8 160.9,11.9 147.3,11.9 141.8,25.1 148.6,41.6 	"/>
	<polygon class="st0" points="175.3,58.2 188.1,53 188.1,39.1 178.4,29.4 165.4,34.7 158.5,51.3 	"/>
	<polygon class="st0" points="178.4,87.1 188.1,77.4 188.1,63.5 175.3,58.2 158.5,65.2 165.4,81.8 	"/>
	<polygon class="st0" points="147.3,104.6 160.9,104.6 170.8,94.7 165.4,81.8 148.6,74.9 141.8,91.4 	"/>
	<polygon class="st0" points="141.8,91.4 134.9,74.9 118.1,81.8 112.7,94.7 122.6,104.6 136.2,104.6 	"/>
	<polygon class="st0" points="118.1,81.8 125,65.2 108.2,58.3 95.4,63.5 95.4,77.4 105.1,87.1 	"/>
	<polygon class="st0" points="95.4,77.4 85.6,67.5 73.3,72.6 67.8,85.8 77.4,95.4 95.4,95.4 	"/>
	<rect x="95.4" y="95.4" class="st0" width="9.1" height="9.1"/>
	<polygon class="st0" points="126.7,127.4 132.2,114.2 122.6,104.6 104.6,104.6 104.6,122.6 114.4,132.5 	"/>
	<polygon class="st0" points="51,200 58.2,207.9 65.5,200 58.2,192.1 	"/>
	<polygon class="st0" points="200,65.5 207.9,58.2 200,51 192.1,58.2 	"/>
	<polygon class="st0" points="149,0 134.5,0 141.8,7.9 	"/>
	<polygon class="st0" points="122.6,11.9 134.5,0 103.6,0 108.6,11.9 	"/>
	<polygon class="st0" points="174.9,11.9 174.9,6 181.5,0 188.1,6 188.1,11.9 194,11.9 200,18.5 206,11.9 211.9,11.9 211.9,6
		218.5,0 225.1,6 225.1,11.9 239.1,11.9 251,0 218.5,0 200,0 181.5,0 149,0 160.9,11.9 	"/>
	<polygon class="st0" points="188.1,25.1 188.1,39.1 200,51 211.9,39.1 211.9,25.1 206,25.1 200,18.5 194,25.1 	"/>
	<polygon class="st0" points="200,96 211.9,91.1 211.9,77.4 200,65.5 188.1,77.4 188.1,91.1 	"/>
	<polygon class="st0" points="11.9,30 11.9,18.7 22.5,23.1 17.9,11.9 30,11.9 22.6,4.5 33.6,0 0,0 0,35.4 5.1,23.2 	"/>
	<polygon class="st0" points="11.9,63.9 0,35.4 0,104 11.9,99.1 	"/>
	<polygon class="st0" points="35.1,53.1 11.9,30 11.9,63.9 25.1,95.4 39.1,95.4 48.7,85.8 	"/>
	<polygon class="st0" points="60,78 73.3,72.6 78.4,60.4 54.1,36 22.5,23.1 35.1,53.1 	"/>
	<polygon class="st0" points="85.5,49 95.4,39.1 95.4,25.4 62.6,11.9 30,11.9 54.1,36 	"/>
	<polygon class="st0" points="98.6,11.9 103.6,0 33.6,0 62.6,11.9 	"/>
	<polygon class="st0" points="137.4,188.1 101.4,188.1 96.4,200 101.4,211.9 137.4,211.9 166.4,200 	"/>
	<polygon class="st0" points="145.9,164 114.5,151.1 104.6,160.9 104.6,174.6 137.4,188.1 170,188.1 	"/>
	<polygon class="st0" points="164.9,146.9 141.8,123.7 140,122 126.7,127.4 121.6,139.7 145.9,164 177.5,177 	"/>
	<polygon class="st0" points="188.1,136.1 174.9,104.6 160.9,104.6 151.3,114.2 164.9,146.9 188.1,170 	"/>
	<polygon class="st0" points="11.9,174.9 11.9,160.9 0,149 0,181.5 6,174.9 	"/>
	<polygon class="st0" points="39.1,188.1 25.1,188.1 25.1,194 18.5,200 25.1,206 25.1,211.9 39.1,211.9 51,200 	"/>
	<polygon class="st0" points="58.2,174.9 51.4,158.4 34.6,165.3 29.2,178.2 39.1,188.1 52.7,188.1 	"/>
	<polygon class="st0" points="24.7,141.8 11.9,147 11.9,160.9 21.6,170.6 34.6,165.3 41.5,148.7 	"/>
	<polygon class="st0" points="34.6,118.2 21.6,112.9 11.9,122.6 11.9,136.5 24.7,141.8 41.5,134.8 	"/>
	<polygon class="st0" points="58.2,108.6 52.7,95.4 39.1,95.4 29.2,105.3 34.6,118.2 51.4,125.1 	"/>
	<polygon class="st0" points="81.9,118.2 87.3,105.3 77.4,95.4 63.8,95.4 58.2,108.6 65.1,125.1 	"/>
	<polygon class="st0" points="104.6,136.5 104.6,122.6 94.9,112.9 81.9,118.2 75,134.8 91.8,141.8 	"/>
	<polygon class="st0" points="91.8,141.8 75,148.7 81.9,165.3 94.9,170.6 104.6,160.9 104.6,147 	"/>
	<polygon class="st0" points="81.9,165.3 65.1,158.4 58.2,174.9 63.8,188.1 77.4,188.1 87.3,178.2 	"/>
	<polygon class="st0" points="65.1,158.4 68,151.6 75,148.7 72.1,141.8 75,134.8 68,132 65.1,125.1 58.2,128 51.4,125.1 48.5,132
		41.5,134.8 44.4,141.8 41.5,148.7 48.5,151.6 51.4,158.4 58.2,155.6 	"/>
	<polygon class="st0" points="125,65.2 132,68.1 134.9,74.9 141.8,72.1 148.6,74.9 151.5,68 158.5,65.2 155.6,58.2 158.5,51.3
		151.5,48.4 148.6,41.6 141.8,44.4 134.9,41.6 132,48.4 125,51.3 127.9,58.2 	"/>
</g>
</svg>
