<?xml version="1.0" encoding="utf-8"?>
<!-- Generator: Adobe Illustrator 22.1.0, SVG Export Plug-In . SVG Version: 6.00 Build 0)  -->
<svg version="1.1" id="Calque_1" xmlns="http://www.w3.org/2000/svg" xmlns:xlink="http://www.w3.org/1999/xlink" x="0px" y="0px"
	 viewBox="0 0 420.4 350.6" style="enable-background:new 0 0 420.4 350.6;" xml:space="preserve">
<style type="text/css">
	.st0{fill:#FFFFFF;}
	.st1{fill:#B8B8B8;}
	.st2{fill:#5D5D5D;}
	.st3{fill:#5A5A5A;}
	.st4{fill:#161616;}
	.st5{fill:#C8C8C8;}
	.st6{fill:#0C0C0C;}
	.st7{fill:#A4A4A4;}
	.st8{fill:#919191;}
	.st9{fill:#4F4F4F;}
</style>
<g>
	<g>
		<g>
			<path class="st0" d="M49.6,0c0.3,0.5,0.6,0.9,0.9,1.4C50.7,0.9,51,0.5,51.3,0H49.6z"/>
			<path d="M61.1,0c-1.3,2.8-2.9,5.5-4.9,8.2c4.1,3.7,9.4,6.8,16.4,8.6c2.3-5,3.3-9.8,3.5-14.3C72.6,2,69.3,1.1,66.3,0H61.1z"/>
			<path class="st1" d="M276.8,0c0.3,0.5,0.6,0.9,0.9,1.4c0.3-0.5,0.6-0.9,0.9-1.4H276.8z"/>
			<path class="st2" d="M212.8,59.5c-5-2.3-9.8-3.3-14.3-3.5c-0.8,5.2-2.4,10-4.3,14.2c3.3,1.4,6.7,3.3,10,5.7
				C208,71.7,211,66.4,212.8,59.5z"/>
			<path class="st3" d="M190,77.8c-0.9,1.4-1.8,2.7-2.6,3.9c0.8,1.2,1.7,2.4,2.6,3.8c2.5-1,4.9-2.2,7.4-3.8
				C195,80,192.5,78.8,190,77.8z"/>
			<path d="M158.2,41.5c-4.1-3.8-9.4-6.9-16.4-8.6c-2.3,5-3.3,9.8-3.5,14.4c5.2,0.8,10,2.4,14.2,4.3
				C153.9,48.2,155.8,44.7,158.2,41.5z"/>
			<path class="st2" d="M123.9,75.8c3.2-2.4,6.6-4.3,10-5.7c-1.9-4.2-3.4-9-4.2-14.2c-4.5,0.2-9.3,1.2-14.3,3.5
				C117.1,66.4,120.1,71.7,123.9,75.8z"/>
			<path class="st1" d="M163.9,8c-7.9,5.7-13.5,11.4-17.5,17.1c6.8,2.1,12.7,5.4,17.7,10c5-4.6,10.9-7.9,17.6-10
				C177.6,19.4,171.9,13.7,163.9,8z"/>
			<path class="st2" d="M295.3,24.6c-6.8-2-12.6-5.4-17.6-9.9c-5,4.6-10.9,7.9-17.7,9.9c4,5.6,9.6,11.4,17.5,17.1
				C285.5,36,291.2,30.2,295.3,24.6z"/>
			<path class="st4" d="M261.8,0c-3.1,1.1-6.4,2-9.9,2.5c0.2,4.5,1.2,9.3,3.5,14.3c7-1.7,12.3-4.8,16.4-8.6c-2-2.7-3.6-5.5-4.9-8.2
				H261.8z"/>
			<path class="st3" d="M250.2,136.6c4.2-6.8,10-13.2,17.6-19.2c-6.2,2.1-13.5,2.4-22,1l-4.4-0.7l-0.7-4.4
				c-1.3-8.3-0.9-15.6,1.1-21.7l0,0c-2.1,2.7-4.3,5.1-6.6,7.4c-0.2,0.2-0.3,0.3-0.5,0.5c-0.6,0.5-1.1,1.1-1.7,1.6
				c-0.3,0.3-0.7,0.6-1,0.9c-0.5,0.4-1,0.9-1.5,1.3c-0.4,0.4-0.8,0.7-1.3,1.1c-0.4,0.4-0.9,0.7-1.3,1c-0.5,0.4-1.1,0.8-1.6,1.2
				c-0.4,0.3-0.7,0.5-1,0.8c-0.9,0.6-1.8,1.2-2.7,1.8c0.8,7,0.6,14.6-0.7,23l-1,6.2l6.2-1C235.6,136,243.3,135.7,250.2,136.6z"/>
			<path class="st0" d="M138,85.5c0.9-1.4,1.7-2.7,2.6-3.8c-0.8-1.2-1.7-2.4-2.6-3.8c-2.4,1-4.9,2.2-7.3,3.8
				C133.1,83.2,135.6,84.5,138,85.5z"/>
			<path class="st5" d="M132.2,4.8L127.9,4l-0.6-4h-17.7c0.3,5.7-0.1,11.9-1.1,18.5l-1,6.2l6.2-1c8.4-1.3,16.1-1.6,23-0.7
				c0.6-0.9,1.2-1.8,1.8-2.8c0.2-0.3,0.5-0.7,0.7-1c0.4-0.6,0.8-1.1,1.2-1.7c0.3-0.4,0.7-0.8,1-1.3c0.4-0.4,0.7-0.9,1.1-1.3
				c0.4-0.5,0.8-1,1.3-1.4c0.3-0.4,0.6-0.7,1-1.1c0.5-0.5,1-1.1,1.6-1.6c0.2-0.2,0.4-0.4,0.6-0.6c2.2-2.2,4.7-4.4,7.3-6.5
				C148,5.8,140.7,6.2,132.2,4.8z"/>
			<path class="st4" d="M305.1,26.6c-0.6,0.9-1.2,1.9-1.8,2.8c-0.2,0.3-0.5,0.6-0.7,1c-0.4,0.6-0.9,1.2-1.3,1.8
				c-0.3,0.4-0.6,0.8-1,1.2c-0.4,0.5-0.8,1-1.2,1.5c-0.4,0.4-0.8,0.9-1.2,1.3c-0.4,0.4-0.8,0.8-1.2,1.2c-0.5,0.5-0.9,1-1.4,1.5
				c-0.3,0.3-0.7,0.6-1,1c-2.2,2.1-4.5,4.2-7.1,6.2c-0.1,0.1-0.1,0.1-0.2,0.2c6.2-2.3,13.7-2.7,22.3-1.4l4.4,0.7l0.7,4.4
				c1.4,8.7,1,16.2-1.2,22.5c0,0,0.1-0.1,0.1-0.1c1.5-1.8,2.9-3.6,4.4-5.2c0.1-0.1,0.1-0.1,0.2-0.2c0.6-0.6,1.1-1.2,1.7-1.8
				c0.3-0.3,0.6-0.7,1-1c0.5-0.5,1-1,1.5-1.5c0.4-0.4,0.8-0.8,1.2-1.1c0.5-0.4,0.9-0.8,1.4-1.2c0.5-0.4,0.9-0.8,1.4-1.2
				c0.4-0.3,0.8-0.7,1.2-1c0.6-0.4,1.1-0.9,1.7-1.3c0.3-0.2,0.7-0.5,1-0.7c0.9-0.6,1.8-1.3,2.8-1.8c-0.8-7.1-0.5-14.8,0.9-23.4
				l1-6.2l-6.2,1C319.9,27.1,312.1,27.4,305.1,26.6z"/>
			<path class="st1" d="M359.5,4.8l-4.4-0.7L354.4,0h-17.7c0.3,5.7-0.1,11.9-1.1,18.5l-1,6.2l6.2-1c8.4-1.3,16.1-1.6,23-0.7
				c0.6-0.9,1.2-1.8,1.8-2.7c0.2-0.3,0.5-0.7,0.7-1c0.4-0.6,0.8-1.1,1.2-1.7c0.3-0.4,0.7-0.8,1-1.3c0.4-0.4,0.7-0.9,1.1-1.3
				c0.4-0.5,0.8-1,1.3-1.4c0.3-0.4,0.6-0.7,1-1.1c0.5-0.5,1-1.1,1.6-1.6c0.2-0.2,0.4-0.4,0.6-0.6c2.2-2.2,4.7-4.4,7.3-6.5
				C375.2,5.8,367.9,6.2,359.5,4.8z"/>
			<path class="st2" d="M213.1,32.3c-6.6-1-12.4-1.3-17.5-1c2,5,3.1,10.1,3.3,15.4c5.2,0.2,10.3,1.3,15.3,3.3
				C214.5,44.8,214.2,39,213.1,32.3z"/>
			<path class="st6" d="M157.5,98.5c3.5-2.4,5.8-4.6,6.5-5.3c0.7,0.7,3.1,2.9,6.5,5.3c0-0.2,0.1-0.4,0.1-0.6
				c0.8-4.3,0.9-7.6,0.9-8.7c1,0,4.4-0.1,8.7-0.9c0.2,0,0.3-0.1,0.5-0.1c-2.5-3.5-4.7-5.8-5.4-6.6c0.7-0.8,3-3.1,5.5-6.7
				c-0.1,0-0.3-0.1-0.4-0.1c-4.3-0.9-7.6-1-8.7-1c0-1-0.1-4.4-1-8.7c0-0.1-0.1-0.3-0.1-0.4c-3.6,2.5-5.9,4.7-6.7,5.5
				c-0.8-0.7-3.1-3-6.7-5.5c0,0.1-0.1,0.3-0.1,0.4c-0.9,4.3-1,7.6-1,8.7c-1,0-4.3,0.1-8.7,1c-0.2,0-0.3,0.1-0.5,0.1
				c2.4,3.5,4.6,5.9,5.4,6.6c-0.7,0.7-2.9,3.1-5.3,6.6c0.2,0,0.4,0.1,0.6,0.1c4.3,0.8,7.6,0.9,8.7,0.9c0,1.1,0.1,4.4,0.9,8.7
				C157.4,98.1,157.5,98.3,157.5,98.5z"/>
			<path class="st1" d="M237.7,81.8c-5.7-8-11.5-13.8-17.1-17.8c-2,6.8-5.4,12.6-9.9,17.6c4.6,5,7.9,10.9,10,17.7
				C226.3,95.4,232,89.7,237.7,81.8z"/>
			<path d="M169.9,41.5c2.4,3.3,4.3,6.7,5.7,10c4.2-1.9,8.9-3.5,14.2-4.3c-0.2-4.6-1.3-9.4-3.6-14.4C179.3,34.6,174,37.7,169.9,41.5
				z"/>
			<path class="st7" d="M179.7,66c1.7,0.3,3.7,0.7,5.7,1.2c1.5-3.1,2.8-6.6,3.6-10.4c-3.8,0.8-7.3,2.1-10.4,3.6
				C179.1,62.3,179.5,64.2,179.7,66z"/>
			<path class="st0" d="M204.2,87.5c-3.3,2.4-6.7,4.3-10,5.7c1.9,4.2,3.5,9,4.3,14.2c4.6-0.2,9.4-1.2,14.4-3.5
				C211.1,96.9,208,91.6,204.2,87.5z"/>
			<path class="st1" d="M287.6,85.1c2.9-0.5,5.5-1.4,7.9-2.6l1.6-0.8l-1.6-0.8c-3-1.5-5.9-2.3-7.8-2.7c-2.7-0.5-4.7-0.6-5.3-0.6
				l-0.7,0l0-0.7c0-0.7-0.1-2.7-0.6-5.3c-0.4-1.9-1.1-4.8-2.7-7.8l-0.8-1.6l-0.8,1.6c-1.2,2.4-2.1,5-2.7,7.8
				c-0.5,2.7-0.6,4.7-0.6,5.3l0,0.7l-0.7,0c-0.6,0-2.6,0.1-5.3,0.6c-2.8,0.6-5.4,1.4-7.8,2.7l-1.6,0.8l1.6,0.8c3,1.5,6,2.3,7.9,2.6
				c2.6,0.5,4.6,0.5,5.3,0.5l0.7,0l0,0.8c0,0.6,0,2.6,0.5,5.3c0.4,1.9,1.1,4.8,2.6,7.9l0.8,1.6l0.8-1.6c1.2-2.4,2.1-5,2.6-7.9
				c0.5-2.7,0.6-4.7,0.6-5.3l0-0.7l0.8,0C283.1,85.6,285.1,85.6,287.6,85.1z"/>
			<path class="st7" d="M303.1,76.3c4.5-5.8,6.1-13.9,4.6-24.2l-0.1-0.7l-0.7-0.1c-10.2-1.4-18.2,0.2-24,4.8l-0.7,0.5l0.5,0.7
				c2.5,3.8,4.3,8.2,5.2,13.2l0.1,0.6l0.6,0.1c5,0.9,9.4,2.7,13.2,5.2l0.7,0.5L303.1,76.3z"/>
			<path class="st1" d="M267.7,45.9c-2.7-2.1-5.1-4.3-7.3-6.6c-0.2-0.2-0.4-0.4-0.5-0.5c-0.5-0.5-1.1-1.1-1.6-1.7
				c-0.3-0.3-0.6-0.7-1-1c-0.4-0.5-0.9-1-1.3-1.5c-0.4-0.4-0.7-0.9-1.1-1.3c-0.3-0.4-0.7-0.9-1-1.3c-0.4-0.6-0.8-1.1-1.2-1.7
				c-0.2-0.3-0.5-0.7-0.7-1c-0.6-0.9-1.2-1.8-1.8-2.8c-7,0.8-14.8,0.5-23.3-0.9l-6.2-1l1,6.2c1.4,8.5,1.7,16.3,0.9,23.4
				c0.9,0.6,1.9,1.2,2.8,1.8c0.3,0.2,0.7,0.5,1,0.7c0.6,0.4,1.1,0.8,1.7,1.3c0.4,0.3,0.8,0.7,1.2,1c0.5,0.4,1,0.8,1.4,1.2
				c0.4,0.4,0.9,0.8,1.4,1.2c0.4,0.4,0.8,0.7,1.2,1.1c0.5,0.5,1,0.9,1.5,1.4c0.3,0.3,0.6,0.7,1,1c0.6,0.6,1.1,1.2,1.7,1.8
				c0,0,0.1,0.1,0.1,0.1c1.6,1.7,3.1,3.5,4.6,5.4c-2.3-6.3-2.7-13.8-1.2-22.5l0.7-4.4l4.4-0.7C254.4,43.4,261.6,43.8,267.7,45.9z"/>
			<path class="st4" d="M218.6,0h-17.7l-0.6,4.1l-4.4,0.7c-8.7,1.4-16.2,1-22.5-1.2c2.6,2.1,5.1,4.2,7.3,6.4
				c0.3,0.3,0.6,0.6,0.9,0.9c0.5,0.5,1,1,1.5,1.5c0.4,0.4,0.7,0.8,1.1,1.2c0.4,0.5,0.8,0.9,1.2,1.4c0.4,0.5,0.8,0.9,1.2,1.4
				c0.3,0.4,0.7,0.8,1,1.2c0.4,0.6,0.9,1.1,1.3,1.7c0.2,0.3,0.5,0.7,0.7,1c0.6,0.9,1.3,1.8,1.8,2.8c7-0.8,14.7-0.6,23.1,0.7l6.2,1
				l-1-6.2C218.7,11.9,218.3,5.7,218.6,0z"/>
			<path d="M327.1,0c-4.7,1.8-9.5,2.7-14.5,3c-0.2,5.2-1.3,10.3-3.3,15.3c5.2,0.3,11.1,0,17.7-1.1c1-6.4,1.3-12.1,1-17.1H327.1z"/>
			<path class="st4" d="M1,0H0.1c-0.3,5,0,10.7,1,17.1c6.6,1.1,12.5,1.4,17.7,1.1c-1.9-4.9-3-10-3.3-15.3C10.6,2.7,5.7,1.8,1,0z"/>
			<path class="st0" d="M99.9,0c-4.7,1.8-9.5,2.7-14.5,3c-0.2,5.2-1.3,10.3-3.3,15.3c5.2,0.3,11.1,0,17.7-1.1c1-6.4,1.3-12.1,1-17.1
				H99.9z"/>
			<path class="st2" d="M50.4,14.7c-5,4.6-10.9,7.9-17.7,10c4,5.6,9.6,11.4,17.5,17.1c8-5.7,13.8-11.5,17.8-17.1
				C61.3,22.6,55.4,19.3,50.4,14.7z"/>
			<path class="st3" d="M132.4,31.4c-5.1-0.3-10.9-0.1-17.5,1c-1.1,6.7-1.4,12.5-1.1,17.7c4.9-2,10-3.1,15.3-3.3
				C129.4,41.5,130.5,36.3,132.4,31.4z"/>
			<path class="st2" d="M267.4,92.7l-0.1-0.6l-0.6-0.1c-5-0.9-9.4-2.7-13.3-5.2l-0.7-0.5l-0.5,0.6c-4.6,5.8-6.2,13.8-4.7,24l0.1,0.7
				l0.7,0.1c10.3,1.5,18.4-0.1,24.2-4.6l0.7-0.5l-0.5-0.7C270,102.1,268.3,97.7,267.4,92.7z"/>
			<path class="st5" d="M272.5,57.4l0.5-0.7l-0.6-0.5c-5.7-4.5-13.8-6.1-24-4.7l-0.7,0.1l-0.1,0.7c-1.5,10.3,0,18.4,4.6,24.2
				l0.5,0.7l0.7-0.5c3.8-2.5,8.2-4.3,13.2-5.2l0.6-0.1l0.1-0.6C268.2,65.6,270,61.2,272.5,57.4z"/>
			<path class="st7" d="M214.3,113.3c-5,2-10.1,3.1-15.4,3.3c-0.2,5.2-1.3,10.3-3.3,15.3c5.2,0.3,11.1,0,17.7-1.1
				C214.4,124.2,214.7,118.4,214.3,113.3z"/>
			<path class="st4" d="M149.5,60.3c-3.1-1.5-6.6-2.8-10.5-3.6c0.8,3.8,2,7.3,3.5,10.5c2.1-0.5,4-0.9,5.8-1.2
				C148.6,64.2,149,62.3,149.5,60.3z"/>
			<path class="st1" d="M164,128.3c-5,4.6-10.9,7.9-17.7,10c4,5.6,9.6,11.4,17.5,17.1c8-5.7,13.8-11.5,17.8-17.1
				C174.9,136.2,169,132.9,164,128.3z"/>
			<path class="st3" d="M133.8,93.2c-3.3-1.4-6.7-3.3-10-5.7c-3.8,4.1-6.9,9.4-8.6,16.4c5,2.3,9.8,3.3,14.4,3.5
				C130.4,102.1,132,97.3,133.8,93.2z"/>
			<path class="st0" d="M113.7,113.3c-0.3,5.1-0.1,10.9,1,17.5c6.6,1.1,12.5,1.4,17.7,1.1c-1.9-4.9-3-10-3.3-15.3
				C123.9,116.3,118.7,115.2,113.7,113.3z"/>
			<path class="st1" d="M185.4,96.1c-2.1,0.5-4,0.9-5.8,1.2c-0.3,1.8-0.6,3.7-1.2,5.8c3.1,1.5,6.7,2.8,10.5,3.6
				C188.2,102.8,186.9,99.2,185.4,96.1z"/>
			<path class="st3" d="M138.3,116.1c0.2,4.5,1.2,9.3,3.5,14.3c7-1.7,12.3-4.8,16.4-8.6c-2.4-3.2-4.2-6.6-5.7-10
				C148.4,113.7,143.6,115.3,138.3,116.1z"/>
		</g>
	</g>
	<g>
		<g>
			<path class="st1" d="M369.7,96c-1.5,3.1-2.8,6.6-3.6,10.5c3.8-0.8,7.3-2.1,10.4-3.6c-0.5-2.1-0.9-4-1.2-5.7
				C373.6,96.9,371.7,96.5,369.7,96z"/>
			<path class="st4" d="M384.4,98.3c3.6-2.5,5.9-4.7,6.7-5.5c0.7,0.7,3.1,3,6.7,5.5c0-0.1,0.1-0.3,0.1-0.4c0.9-4.3,1-7.6,1-8.7
				c1.1,0,4.4-0.1,8.7-1c0.2,0,0.3-0.1,0.5-0.1c-2.4-3.5-4.6-5.9-5.4-6.6c0.7-0.7,2.9-3.1,5.3-6.6c-0.2,0-0.4-0.1-0.6-0.1
				c-4.3-0.8-7.6-0.9-8.7-0.9c0-1.1-0.1-4.4-0.9-8.7c0-0.2-0.1-0.4-0.1-0.6c-3.5,2.4-5.8,4.6-6.5,5.3c-0.7-0.7-3.1-2.9-6.6-5.3
				c0,0.2-0.1,0.4-0.1,0.6c-0.8,4.3-0.9,7.6-0.9,8.7c-1,0-4.4,0.1-8.7,0.9c-0.2,0-0.3,0.1-0.5,0.1c2.5,3.5,4.7,5.8,5.4,6.6
				c-0.7,0.8-3,3.1-5.5,6.7c0.1,0,0.3,0.1,0.4,0.1c4.3,0.9,7.6,1,8.7,1c0,1.1,0.1,4.4,1,8.7C384.3,98,384.4,98.1,384.4,98.3z"/>
			<path class="st1" d="M394.8,55.4c-1-2.4-2.2-4.9-3.8-7.3c-1.6,2.4-2.8,4.9-3.8,7.3c1.4,0.9,2.7,1.7,3.8,2.6
				C392.2,57.1,393.5,56.3,394.8,55.4z"/>
			<path d="M375.5,65.9c0.3-1.8,0.7-3.7,1.2-5.8c-3.1-1.5-6.7-2.8-10.5-3.6c0.8,3.9,2.1,7.4,3.6,10.5
				C371.8,66.5,373.7,66.1,375.5,65.9z"/>
			<path d="M420.4,79.2c-1.1-0.6-2.2-1.1-3.3-1.5c-0.9,1.4-1.7,2.7-2.6,3.8c0.8,1.2,1.7,2.4,2.6,3.8c1.1-0.5,2.2-1,3.3-1.5V79.2z"/>
			<path class="st4" d="M408.7,138.1c-6.8-2.1-12.7-5.4-17.7-10c-5,4.6-10.9,7.9-17.6,10c4,5.6,9.8,11.4,17.8,17.1
				C399.1,149.4,404.8,143.7,408.7,138.1z"/>
			<path class="st2" d="M373.4,24.9c6.8,2,12.6,5.4,17.6,9.9c5-4.6,10.9-7.9,17.7-10c-4-5.6-9.6-11.4-17.5-17.1
				C383.2,13.5,377.5,19.3,373.4,24.9z"/>
			<path class="st2" d="M334.5,99.1c2-6.8,5.4-12.6,9.9-17.6c-4.6-5-7.9-10.9-10-17.7c-5.6,4-11.4,9.6-17.1,17.5
				C323.1,89.3,328.9,95,334.5,99.1z"/>
			<path d="M356.6,107.2c0.8-5.2,2.4-10,4.3-14.2c-3.3-1.4-6.8-3.3-10-5.7c-3.7,4.1-6.8,9.4-8.6,16.4
				C347.3,105.9,352.1,107,356.6,107.2z"/>
			<path class="st6" d="M342,130.8c6.6,1,12.4,1.3,17.5,0.9c-2-5-3.1-10.1-3.3-15.4c-5.2-0.2-10.3-1.3-15.3-3.3
				C340.6,118.3,340.9,124.1,342,130.8z"/>
			<path class="st4" d="M396.9,41.3c2.4,3.2,4.2,6.6,5.7,10c4.2-1.9,9-3.5,14.2-4.2c-0.2-4.5-1.2-9.3-3.5-14.3
				C406.3,34.4,401,37.5,396.9,41.3z"/>
			<path class="st8" d="M416,106.4c-0.8-3.8-2.1-7.3-3.5-10.5c-2.1,0.5-4,0.9-5.8,1.2c-0.3,1.7-0.7,3.7-1.2,5.7
				C408.7,104.3,412.2,105.6,416,106.4z"/>
			<path class="st1" d="M385.2,121.6c-2.4-3.3-4.3-6.7-5.7-10c-4.2,1.9-8.9,3.5-14.2,4.3c0.2,4.6,1.3,9.4,3.6,14.4
				C375.8,128.5,381.1,125.4,385.2,121.6z"/>
			<path class="st9" d="M363.6,250.1c0.6-0.9,1.2-1.9,1.8-2.8c0.2-0.3,0.5-0.6,0.7-1c0.4-0.6,0.9-1.2,1.3-1.8c0.3-0.4,0.6-0.8,1-1.2
				c0.4-0.5,0.8-1,1.2-1.5c0.4-0.4,0.8-0.9,1.2-1.3c0.4-0.4,0.8-0.8,1.2-1.2c0.5-0.5,0.9-1,1.4-1.5c0.3-0.3,0.7-0.6,1-1
				c2.2-2.1,4.5-4.2,7.1-6.2c0.1,0,0.1-0.1,0.2-0.1c-6.2,2.3-13.7,2.7-22.3,1.4l-4.4-0.7l-0.7-4.4c-1.4-8.7-1-16.2,1.2-22.5
				c0,0-0.1,0.1-0.1,0.1c-1.5,1.8-2.9,3.6-4.4,5.2c-0.1,0.1-0.1,0.1-0.2,0.2c-0.6,0.6-1.1,1.2-1.7,1.8c-0.3,0.3-0.6,0.7-1,1
				c-0.5,0.5-1,1-1.5,1.5c-0.4,0.4-0.8,0.8-1.2,1.1c-0.5,0.4-0.9,0.8-1.4,1.2c-0.5,0.4-0.9,0.8-1.4,1.2c-0.4,0.3-0.8,0.7-1.2,1
				c-0.6,0.4-1.1,0.9-1.7,1.3c-0.3,0.3-0.7,0.5-1,0.7c-0.9,0.6-1.9,1.3-2.8,1.8c0.8,7.1,0.5,14.8-0.9,23.4l-1,6.2l6.2-1
				C348.8,249.6,356.6,249.3,363.6,250.1z"/>
			<path class="st1" d="M237.3,189.2c3.3-2.4,6.7-4.3,10-5.7c-1.9-4.2-3.5-9-4.3-14.2c-4.6,0.2-9.4,1.2-14.4,3.5
				C230.4,179.8,233.5,185.1,237.3,189.2z"/>
			<path class="st4" d="M271.6,154.9c-4.1-3.7-9.4-6.8-16.4-8.6c-2.3,5-3.3,9.8-3.5,14.3c5.2,0.8,10,2.4,14.2,4.2
				C267.4,161.5,269.2,158.1,271.6,154.9z"/>
			<path class="st2" d="M281.3,221.1c-1.4-0.9-2.7-1.8-3.9-2.6c-1.2,0.9-2.5,1.7-3.9,2.6c1,2.4,2.3,4.9,3.9,7.4
				C279.1,226,280.3,223.5,281.3,221.1z"/>
			<path class="st2" d="M351.1,194.9c-5.7-7.9-11.4-13.5-17.1-17.5c-2.1,6.8-5.4,12.7-10,17.7c4.6,5,7.9,10.9,9.9,17.6
				C339.6,208.6,345.4,202.9,351.1,194.9z"/>
			<path class="st0" d="M326.8,146c-6.6-1.1-12.5-1.4-17.7-1.1c1.9,4.9,3,10,3.2,15.3c5.3,0.2,10.4,1.3,15.4,3.3
				C328.1,158.3,327.8,152.5,326.8,146z"/>
			<path class="st5" d="M277.4,171.6c1.1-0.8,2.4-1.7,3.8-2.6c-1-2.4-2.2-4.9-3.8-7.3c-1.6,2.4-2.8,4.9-3.8,7.3
				C275,169.9,276.3,170.7,277.4,171.6z"/>
			<path d="M251.5,198.9c0.9-1.4,1.8-2.7,2.6-3.9c-0.8-1.1-1.7-2.4-2.6-3.8c-2.5,1-4.9,2.2-7.4,3.8
				C246.5,196.7,249,197.9,251.5,198.9z"/>
			<path class="st8" d="M283.3,154.9c2.4,3.2,4.2,6.6,5.7,10c4.2-1.9,9-3.5,14.2-4.2c-0.2-4.5-1.2-9.3-3.5-14.3
				C292.7,148,287.4,151.1,283.3,154.9z"/>
			<path class="st3" d="M293,179.5c1.8,0.3,3.7,0.7,5.8,1.2c1.5-3.1,2.8-6.7,3.6-10.5c-3.9,0.8-7.4,2.1-10.5,3.6
				C292.4,175.7,292.8,177.7,293,179.5z"/>
			<path class="st1" d="M420.4,5.1C413,6,406.5,5.5,401,3.6c2.7,2.1,5.1,4.3,7.3,6.6c0.2,0.2,0.4,0.4,0.5,0.5
				c0.5,0.5,1.1,1.1,1.6,1.7c0.3,0.3,0.6,0.7,1,1c0.4,0.5,0.9,1,1.3,1.4c0.4,0.4,0.7,0.9,1.1,1.3c0.3,0.4,0.7,0.9,1,1.3
				c0.4,0.6,0.8,1.1,1.2,1.7c0.2,0.3,0.5,0.7,0.7,1c0.6,0.9,1.2,1.8,1.8,2.8c0.6-0.1,1.3-0.1,1.9-0.2V5.1z"/>
			<path d="M340.8,49.8c5-2,10.1-3.1,15.4-3.3c0.2-5.2,1.3-10.3,3.3-15.3c-5.2-0.3-11.1,0-17.7,1.1
				C340.7,38.9,340.4,44.7,340.8,49.8z"/>
			<path class="st7" d="M420.4,232.3c-7.4,0.9-13.9,0.4-19.5-1.4c2.7,2.1,5.1,4.3,7.3,6.6c0.2,0.2,0.4,0.4,0.5,0.5
				c0.5,0.6,1.1,1.1,1.6,1.7c0.3,0.3,0.6,0.7,1,1c0.4,0.5,0.9,1,1.3,1.4c0.4,0.4,0.7,0.9,1.1,1.3c0.3,0.4,0.7,0.9,1,1.3
				c0.4,0.6,0.8,1.1,1.2,1.7c0.2,0.3,0.5,0.7,0.7,1c0.6,0.9,1.2,1.8,1.8,2.8c0.6-0.1,1.3-0.1,1.9-0.2V232.3z"/>
			<path class="st9" d="M384.4,325.5c3.6-2.5,5.9-4.7,6.7-5.5c0.7,0.7,3.1,3,6.7,5.5c0-0.1,0.1-0.3,0.1-0.4c0.9-4.3,1-7.7,1-8.7
				c1.1,0,4.4-0.1,8.7-1c0.2,0,0.3-0.1,0.5-0.1c-2.4-3.5-4.6-5.9-5.4-6.6c0.7-0.7,2.9-3.1,5.3-6.5c-0.2,0-0.4-0.1-0.6-0.1
				c-4.3-0.8-7.6-0.9-8.7-0.9c0-1.1-0.1-4.3-0.9-8.7c0-0.2-0.1-0.4-0.1-0.6c-3.5,2.4-5.8,4.6-6.6,5.3c-0.7-0.7-3.1-2.9-6.5-5.3
				c0,0.2-0.1,0.4-0.1,0.6c-0.8,4.3-0.9,7.6-0.9,8.7c-1,0-4.4,0.1-8.7,0.9c-0.2,0-0.3,0.1-0.5,0.1c2.5,3.5,4.7,5.8,5.4,6.6
				c-0.7,0.8-3,3.1-5.5,6.7c0.1,0,0.3,0.1,0.4,0.1c4.3,0.9,7.6,1,8.7,1c0,1,0.1,4.4,1,8.7C384.3,325.2,384.4,325.3,384.4,325.5z"/>
			<path class="st0" d="M387.4,317.8c0-0.7-0.1-1.2-0.1-1.5l-0.1-3.9l-3.9,0c-0.3,0-0.8,0-1.5-0.1c0.3-0.3,0.6-0.6,0.7-0.7l2.9-2.9
				l-2.9-2.9c-0.1-0.1-0.3-0.3-0.6-0.6c0.7,0,1.2,0,1.5,0l4,0v-4c0-0.3,0-0.9,0.1-1.7c0.3,0.3,0.5,0.5,0.6,0.6l2.8,2.8
				c0,0,3.2-3.1,3.5-3.4c0.1,0.9,0.1,1.5,0.1,1.7l0,4l4,0c0.3,0,0.9,0,1.7,0.1c-0.3,0.3-3.4,3.5-3.4,3.5l2.8,2.8
				c0.1,0.1,0.4,0.4,0.7,0.7c-0.8,0.1-1.4,0.1-1.7,0.1l-4,0l0,4c0,0.3,0,0.8-0.1,1.5c-0.4-0.3-0.6-0.6-0.7-0.7l-2.9-2.9l-2.9,2.8
				C388,317.3,387.8,317.5,387.4,317.8z"/>
			<path class="st1" d="M415.7,350.6c0.6-2.6,1-5.1,1.1-7.5c-5.2-0.8-10-2.4-14.2-4.3c-1.4,3.3-3.3,6.7-5.7,10
				c0.7,0.6,1.4,1.2,2.1,1.8H415.7z"/>
			<path class="st7" d="M369.7,323.2c-1.5,3.1-2.8,6.6-3.6,10.4c3.8-0.8,7.3-2.1,10.4-3.6c-0.5-2.1-0.9-4-1.2-5.7
				C373.6,324.1,371.7,323.7,369.7,323.2z"/>
			<path class="st1" d="M391.2,235c-8,5.7-13.8,11.5-17.8,17.1c6.8,2,12.6,5.4,17.6,9.9c5-4.6,10.9-7.9,17.7-10
				C404.8,246.4,399.1,240.7,391.2,235z"/>
			<path d="M283.3,235.2c4.1,3.8,9.4,6.9,16.4,8.6c2.3-5,3.3-9.8,3.5-14.4c-5.2-0.8-10-2.4-14.2-4.3
				C287.6,228.6,285.7,232,283.3,235.2z"/>
			<path class="st7" d="M420.4,140.3c-0.7-0.1-1.3-0.1-2-0.2c-0.6,0.9-1.2,1.8-1.8,2.8c-0.2,0.3-0.5,0.7-0.7,1
				c-0.4,0.6-0.8,1.1-1.2,1.7c-0.3,0.4-0.7,0.8-1,1.3c-0.4,0.4-0.7,0.9-1.1,1.3c-0.4,0.5-0.8,1-1.3,1.4c-0.3,0.4-0.6,0.7-1,1.1
				c-0.5,0.5-1,1.1-1.6,1.6c-0.2,0.2-0.4,0.4-0.6,0.6c-2.2,2.2-4.7,4.4-7.3,6.5c5.6-1.9,12.1-2.3,19.6-1.4V140.3z"/>
			<path class="st1" d="M350.9,302.8c3.3-2.4,6.7-4.3,10-5.7c-1.9-4.2-3.5-9-4.3-14.2c-4.6,0.2-9.4,1.2-14.4,3.5
				C344,293.4,347.1,298.7,350.9,302.8z"/>
			<path class="st6" d="M317.6,200.9c-3.2,2.4-6.6,4.3-10,5.7c1.9,4.2,3.4,9,4.2,14.2c4.5-0.2,9.3-1.3,14.3-3.5
				C324.4,210.3,321.4,205,317.6,200.9z"/>
			<path d="M381.8,159.6c-2.6-2.1-5.1-4.2-7.3-6.4c-0.3-0.3-0.6-0.6-0.9-0.9c-0.5-0.5-1-1-1.5-1.5c-0.4-0.4-0.7-0.8-1.1-1.2
				c-0.4-0.5-0.8-0.9-1.2-1.4c-0.4-0.5-0.8-0.9-1.2-1.4c-0.3-0.4-0.7-0.8-1-1.2c-0.4-0.6-0.9-1.1-1.3-1.7c-0.2-0.3-0.5-0.7-0.7-1
				c-0.6-0.9-1.3-1.8-1.8-2.8c-7,0.8-14.7,0.6-23.1-0.7l-6.2-1l1,6.2c1.3,8.4,1.6,16.1,0.7,23c0.9,0.6,1.8,1.2,2.7,1.8
				c0.3,0.2,0.7,0.5,1,0.7c0.6,0.4,1.1,0.8,1.7,1.2c0.4,0.3,0.9,0.7,1.3,1c0.4,0.4,0.9,0.7,1.3,1.1c0.5,0.4,1,0.8,1.4,1.3
				c0.3,0.3,0.7,0.6,1,1c0.6,0.5,1.1,1,1.6,1.6c0.2,0.2,0.4,0.4,0.5,0.5c2.2,2.2,4.4,4.7,6.5,7.3c0,0,0,0,0,0
				c-2.1-6.1-2.5-13.4-1.2-21.7l0.7-4.4l4.4-0.7C368,156.9,375.5,157.3,381.8,159.6z"/>
			<path class="st1" d="M332.5,108.9c-0.9-0.6-1.9-1.2-2.8-1.8c-0.3-0.2-0.7-0.5-1-0.7c-0.6-0.4-1.1-0.8-1.7-1.3
				c-0.4-0.3-0.8-0.7-1.2-1c-0.5-0.4-0.9-0.8-1.4-1.2c-0.5-0.4-0.9-0.8-1.4-1.2c-0.4-0.4-0.8-0.8-1.2-1.1c-0.5-0.5-1-1-1.5-1.4
				c-0.3-0.3-0.6-0.7-1-1c-0.6-0.6-1.1-1.2-1.7-1.8c0,0-0.1-0.1-0.1-0.1c-1.6-1.7-3.1-3.5-4.6-5.4c2.2,6.3,2.7,13.8,1.2,22.5
				l-0.7,4.4l-4.4,0.7c-8.3,1.3-15.6,0.9-21.7-1.1c2.7,2.1,5.1,4.3,7.4,6.6c0.2,0.2,0.4,0.4,0.5,0.5c0.5,0.6,1.1,1.1,1.6,1.7
				c0.3,0.3,0.6,0.7,1,1c0.4,0.5,0.9,1,1.3,1.4c0.4,0.4,0.7,0.9,1.1,1.3c0.3,0.4,0.7,0.9,1,1.3c0.4,0.6,0.8,1.1,1.2,1.7
				c0.2,0.3,0.5,0.7,0.7,1c0.6,0.9,1.2,1.8,1.8,2.8c7-0.8,14.8-0.5,23.3,0.9l6.2,1l-1-6.2C332,123.7,331.7,115.9,332.5,108.9z"/>
			<path class="st5" d="M385.2,268.5c-4.1-3.7-9.4-6.8-16.4-8.6c-2.3,5-3.3,9.8-3.5,14.3c5.2,0.8,10,2.4,14.2,4.2
				C381,275.1,382.8,271.7,385.2,268.5z"/>
			<path class="st4" d="M391,285.2c1.1-0.8,2.4-1.7,3.8-2.6c-1-2.4-2.2-4.9-3.8-7.3c-1.6,2.4-2.8,4.9-3.8,7.3
				C388.6,283.5,389.9,284.3,391,285.2z"/>
			<path class="st0" d="M396.9,268.5c2.4,3.2,4.2,6.6,5.7,10c4.2-1.9,9-3.5,14.2-4.2c-0.2-4.5-1.2-9.3-3.5-14.3
				C406.3,261.6,401,264.7,396.9,268.5z"/>
			<path class="st0" d="M394.9,334.7c-1.4-0.9-2.7-1.8-3.9-2.6c-1.2,0.9-2.5,1.7-3.9,2.6c1,2.4,2.3,4.9,3.9,7.4
				C392.7,339.6,393.9,337.1,394.9,334.7z"/>
			<path class="st0" d="M376.6,287.2c-3.1-1.5-6.7-2.8-10.5-3.5c0.8,3.9,2.1,7.4,3.6,10.5c2.1-0.5,4-0.9,5.8-1.2
				C375.7,291.3,376.1,289.3,376.6,287.2z"/>
			<path class="st2" d="M420.4,208.1c-0.9-2.9-2.2-5.5-3.9-7.7l-0.5-0.7l-0.7,0.5c-3.8,2.5-8.3,4.3-13.2,5.2l-0.6,0.1l-0.1,0.6
				c-0.9,5-2.7,9.4-5.2,13.2l-0.5,0.7l0.6,0.5c5.7,4.5,13.8,6.1,24,4.7l0.1,0V208.1z"/>
			<path class="st1" d="M360.9,320.2c-3.3-1.4-6.7-3.3-10-5.7c-3.7,4.1-6.8,9.4-8.6,16.4c5,2.3,9.8,3.3,14.3,3.5
				C357.4,329.2,359,324.4,360.9,320.2z"/>
			<path class="st7" d="M412.5,323.2c-2.1,0.5-4,0.9-5.8,1.2c-0.3,1.7-0.7,3.7-1.2,5.7c3.1,1.5,6.6,2.8,10.5,3.6
				C415.2,329.8,414,326.3,412.5,323.2z"/>
			<path class="st7" d="M357,350.6c-0.5-2.3-0.7-4.7-0.9-7c-5.2-0.2-10.3-1.3-15.3-3.3c-0.2,3.2-0.2,6.6,0.2,10.3H357z"/>
			<path d="M359.4,258.5c-5.2-0.3-11.1,0-17.7,1.1c-1,6.5-1.3,12.3-0.9,17.5c5-2,10.1-3.1,15.4-3.3
				C356.4,268.5,357.5,263.4,359.4,258.5z"/>
			<path class="st3" d="M420.4,165c-10.2-1.5-18.3,0.1-24.1,4.6l-0.6,0.5l0.5,0.7c2.5,3.8,4.3,8.3,5.2,13.3l0.1,0.6l0.6,0.1
				c5,0.9,9.5,2.6,13.3,5.2l0.7,0.5l0.5-0.6c1.7-2.2,3.1-4.8,3.9-7.6V165z"/>
			<path class="st0" d="M327.6,226.7c-4.9,2-10,3.1-15.3,3.3c-0.2,5.3-1.3,10.4-3.3,15.4c5.1,0.4,10.9,0.1,17.5-0.9
				C327.6,237.7,327.9,231.9,327.6,226.7z"/>
			<path class="st4" d="M298.9,209.6c-2.1,0.5-4,0.9-5.8,1.2c-0.3,1.7-0.7,3.7-1.2,5.7c3.1,1.5,6.6,2.8,10.5,3.6
				C301.6,216.2,300.4,212.7,298.9,209.6z"/>
			<path class="st8" d="M251.7,229.5c0.2,4.5,1.3,9.4,3.6,14.4c6.9-1.8,12.2-4.9,16.3-8.6c-2.4-3.3-4.3-6.7-5.7-10
				C261.7,227.1,256.9,228.7,251.7,229.5z"/>
			<path class="st2" d="M385.9,170.8l0.5-0.7l-0.6-0.5c-5.7-4.5-13.9-6.1-24.2-4.6l-0.7,0.1l-0.1,0.7c-1.4,10.2,0.2,18.3,4.7,24
				l0.5,0.6l0.7-0.5c3.8-2.5,8.3-4.3,13.3-5.2l0.6-0.1l0.1-0.6C381.7,179.1,383.4,174.6,385.9,170.8z"/>
			<path class="st1" d="M381.1,191.6c-2.9,0.5-5.5,1.4-7.9,2.6l-1.6,0.8l1.6,0.8c3,1.5,5.9,2.3,7.8,2.7c2.7,0.5,4.7,0.6,5.3,0.6
				l0.7,0l0,0.7c0,0.7,0.1,2.7,0.6,5.3c0.4,1.9,1.1,4.8,2.7,7.8l0.8,1.6l0.8-1.6c1.2-2.4,2.1-5,2.7-7.8c0.5-2.7,0.6-4.7,0.6-5.3
				l0-0.7l0.7,0c0.6,0,2.6-0.1,5.3-0.6c2.8-0.6,5.4-1.4,7.8-2.7l1.6-0.8l-1.6-0.8c-3-1.5-6-2.3-7.9-2.6c-2.6-0.5-4.6-0.6-5.3-0.6
				H395l0-0.8c0-0.6,0-2.6-0.5-5.3c-0.4-1.9-1.1-4.8-2.6-7.9l-0.8-1.6l-0.8,1.6c-1.2,2.4-2.1,5-2.6,7.9c-0.5,2.7-0.5,4.7-0.5,5.3
				l0,0.8l-0.8,0C385.6,191.1,383.6,191.1,381.1,191.6z"/>
			<path class="st4" d="M380.7,206.1l-0.1-0.6l-0.6-0.1c-5-0.9-9.4-2.7-13.2-5.2l-0.7-0.5l-0.5,0.7c-4.5,5.8-6.1,13.9-4.6,24.1
				l0.1,0.7l0.7,0.1c10.1,1.4,18.2-0.2,24-4.7l0.6-0.5l-0.5-0.7C383.4,215.5,381.6,211.1,380.7,206.1z"/>
			<path class="st1" d="M220.8,177.4c-5.6,4-11.4,9.6-17.1,17.5c5.7,8,11.5,13.8,17.1,17.8c2-6.8,5.4-12.6,9.9-17.6
				C226.2,190,222.9,184.1,220.8,177.4z"/>
		</g>
	</g>
</g>
</svg>
