<?xml version="1.0" encoding="utf-8"?>
<!-- Generator: Adobe Illustrator 22.1.0, SVG Export Plug-In . SVG Version: 6.00 Build 0)  -->
<svg version="1.1" id="Calque_1" xmlns="http://www.w3.org/2000/svg" xmlns:xlink="http://www.w3.org/1999/xlink" x="0px" y="0px"
	 viewBox="0 0 470.4 514.4" style="enable-background:new 0 0 470.4 514.4;" xml:space="preserve">
<style type="text/css">
	.st0{fill:#FFFFFF;}
	.st1{fill:#B8B8B8;}
	.st2{fill:#A4A4A4;}
	.st3{fill:#161616;}
	.st4{fill:#5A5A5A;}
	.st5{fill:#0C0C0C;}
	.st6{fill:#5D5D5D;}
	.st7{fill:#4F4F4F;}
	.st8{fill:#C8C8C8;}
</style>
<g>
	<g>
		<g>
			<g>
				<path class="st0" d="M80.2,231.1c-2.8,2-5.9,4.2-9.2,6.3c2.4,5.8,5.4,11.8,9.2,17.5c3.8-5.7,6.8-11.7,9.2-17.5
					C86.1,235.2,83,233.1,80.2,231.1z"/>
				<path class="st0" d="M71.2,113.4c3.3,2.1,6.3,4.1,9.1,6.1c2.7-2,5.8-4,9.1-6.1c-2.3-5.8-5.3-11.6-9.1-17.3
					C76.5,101.8,73.6,107.6,71.2,113.4z"/>
				<path class="st1" d="M94.1,271.1c9.7,8.9,22.5,16.3,39,20.6c5.4-11.9,7.9-23.4,8.3-34.2c-12.4-1.9-23.8-5.6-33.7-10.2
					C104.3,255.2,99.9,263.3,94.1,271.1z"/>
				<path class="st2" d="M100.9,122.1c-11,7.6-18.4,14.5-20.7,16.8c-2.3-2.3-9.6-9.1-20.7-16.8c-0.1,0.6-0.3,1.2-0.4,1.8
					c-2.6,13.7-2.8,24.2-2.8,27.5c-3.3,0-13.8,0.3-27.5,2.8c-0.5,0.1-1,0.2-1.5,0.3c7.8,11.1,14.8,18.4,17.1,20.8
					c-2.4,2.4-9.4,9.8-17.3,21c0.4,0.1,0.8,0.2,1.2,0.3c13.7,2.7,24.2,3,27.5,3.1c0,3.3,0.4,13.8,3.1,27.5c0.1,0.4,0.2,0.8,0.3,1.2
					c11.2-7.9,18.7-14.9,21.1-17.3c2.4,2.4,9.8,9.4,21.1,17.3c0.1-0.4,0.2-0.9,0.3-1.3c2.7-13.7,3.1-24.2,3.1-27.5
					c3.3,0,13.8-0.4,27.5-3.1c0.5-0.1,1.1-0.2,1.6-0.3c-7.7-11.2-14.6-18.6-17-21c2.3-2.4,9.1-9.7,16.8-20.7
					c-0.6-0.1-1.3-0.3-1.9-0.4c-13.7-2.6-24.2-2.8-27.5-2.9c0-3.3-0.3-13.8-2.8-27.5C101.2,123.4,101.1,122.7,100.9,122.1z"/>
				<path d="M66.4,79.8c-9.7-8.9-22.4-16.2-39-20.4c-5.4,11.8-7.9,23.2-8.4,34c12.5,1.9,23.9,5.6,33.9,10.1
					C56.3,95.6,60.7,87.5,66.4,79.8z"/>
				<path class="st1" d="M0,123.3v28.8c2.8-1.5,5.7-2.8,8.5-4C5.1,140.5,2.1,132.2,0,123.3z"/>
				<path class="st1" d="M80.7,350.9c18.7-13.6,32.2-27.3,41.6-40.6c-16.1-4.9-30.2-12.9-42.1-23.8c-11.9,10.9-25.9,18.8-41.9,23.7
					C48,323.6,61.7,337.3,80.7,350.9z"/>
				<path class="st3" d="M131.2,141.1c3.5-7.5,6.6-15.9,8.5-25.1c-9.2,1.9-17.6,4.9-25.1,8.5c1.2,5,2.1,9.6,2.8,13.8
					C121.6,139,126.3,139.9,131.2,141.1z"/>
				<path class="st2" d="M0,279.1v16.3c1.7-0.1,3.4-0.1,5.1-0.3C3,289.9,1.3,284.5,0,279.1z"/>
				<path d="M66.4,271.1c-5.7-7.8-10.2-15.9-13.6-23.8c-10,4.5-21.3,8.3-33.7,10.2c0.5,10.8,3,22.3,8.5,34.2
					C44,287.4,56.6,280,66.4,271.1z"/>
				<path class="st4" d="M40.8,346.3c-0.8-0.7-1.5-1.5-2.3-2.2c-1.2-1.2-2.3-2.4-3.5-3.6c-0.9-0.9-1.8-1.9-2.6-2.8
					c-1-1.1-2-2.2-2.9-3.3c-1-1.1-1.9-2.2-2.8-3.3c-0.8-1-1.6-2-2.4-2.9c-1.1-1.3-2.1-2.7-3.1-4.1c-0.6-0.8-1.2-1.6-1.7-2.4
					c-1.5-2.2-3-4.4-4.4-6.6c-4.9,0.6-10,1-15.2,1.1v43l4.5-0.8c20.7-3.4,38.7-2.4,53.7,2.9C51.9,356.5,46.2,351.4,40.8,346.3z"/>
				<path class="st4" d="M42.9,212.8c-4.1-0.6-8.7-1.6-13.6-2.8c-3.5,7.4-6.6,15.8-8.5,24.9c9.1-1.9,17.5-4.9,24.9-8.5
					C44.5,221.5,43.5,216.9,42.9,212.8z"/>
				<path d="M56.4,437.8c-6.8,1.3-13.1,3.4-18.8,6.2l-3.8,1.9l3.8,1.9c7.1,3.6,14,5.4,18.6,6.3c6.4,1.3,11.3,1.4,12.6,1.4l1.8,0
					l0,1.8c0,1.8,0.2,6.5,1.4,12.6c0.9,4.5,2.7,11.5,6.4,18.6l1.9,3.7l1.9-3.7c2.9-5.6,5-11.9,6.3-18.6c1.3-6.4,1.4-11.2,1.4-12.6
					l0-1.8l1.8,0c1.3,0,6.2-0.1,12.6-1.4c6.7-1.3,13-3.4,18.6-6.3l3.8-1.9l-3.8-1.9c-7.2-3.6-14.2-5.4-18.8-6.3
					c-6.2-1.2-10.9-1.3-12.6-1.3l-1.8,0l0-1.8c0-1.3-0.1-6.2-1.3-12.6c-0.9-4.6-2.6-11.5-6.2-18.7l-1.9-3.8l-1.9,3.8
					c-2.8,5.6-4.9,12-6.2,18.7c-1.2,6.3-1.3,11.2-1.3,12.6l0,1.8l-1.8,0C67.3,436.5,62.6,436.6,56.4,437.8z"/>
				<path class="st3" d="M145.6,315.1c-1.3,2.2-2.8,4.4-4.3,6.5c-0.6,0.8-1.2,1.6-1.7,2.4c-1,1.3-1.9,2.7-3,4c-0.8,1-1.6,2-2.4,3
					c-0.9,1.1-1.8,2.1-2.7,3.2c-1,1.1-2,2.3-3,3.4c-0.8,0.8-1.5,1.7-2.3,2.5c-1.2,1.3-2.4,2.6-3.7,3.9c-0.5,0.5-1,0.9-1.4,1.4
					c-5.3,5.3-11.1,10.4-17.4,15.5c14.7-4.9,32.2-5.8,52.3-2.5l10.5,1.7l1.7,10.5c3.1,19.8,2.2,37.1-2.7,51.6c0,0,0,0,0,0
					c5.1-6.3,10.3-12.2,15.6-17.5c0.4-0.4,0.7-0.8,1.1-1.1c1.3-1.3,2.7-2.6,4-3.8c0.8-0.7,1.6-1.5,2.3-2.2c1.2-1.1,2.3-2.1,3.5-3.1
					c1-0.9,2-1.7,3.1-2.5c1-0.8,2.1-1.7,3.1-2.5c1.3-1,2.6-1.9,3.9-2.9c0.8-0.6,1.6-1.2,2.5-1.8c2.2-1.5,4.3-2.9,6.5-4.3
					c-2-16.6-1.4-34.9,1.7-54.8l2.3-14.7l-14.7,2.3C180.4,316.6,162.1,317.1,145.6,315.1z"/>
				<path class="st5" d="M104.7,419.7l0.3,1.5l1.5,0.3c11.9,2.2,22.5,6.3,31.6,12.3l1.6,1.1l1.2-1.5c10.8-13.7,14.7-32.9,11.3-57.1
					l-0.2-1.6l-1.6-0.2c-24.4-3.6-43.8,0.1-57.5,11l-1.5,1.2l1.1,1.6C98.4,397.2,102.6,407.8,104.7,419.7z"/>
				<path d="M152.2,148.1c7.9,3.4,16,7.8,23.7,13.5c8.9-9.8,16.3-22.5,20.6-39c-11.9-5.4-23.4-7.9-34.2-8.3
					C160.4,126.7,156.7,138.1,152.2,148.1z"/>
				<path class="st6" d="M29.4,141.1c4.9-1.2,9.6-2.1,13.7-2.8c0.6-4.2,1.5-8.9,2.8-13.8c-7.5-3.5-15.9-6.6-25.1-8.5
					C22.7,125.2,25.8,133.6,29.4,141.1z"/>
				<path class="st3" d="M200,100.2c0.8-12.2,0.2-26-2.3-41.6C181.9,56,168,55.2,155.6,56c4.6,11.8,7.2,23.9,7.7,36.4
					C175.9,92.9,188.2,95.5,200,100.2z"/>
				<path class="st0" d="M0,55.8v16C1.3,66.4,2.9,61.2,5,56C3.3,55.9,1.7,55.8,0,55.8z"/>
				<path class="st6" d="M80.3,64.4c12-10.9,26-18.9,42.2-23.7C113,27.3,99.5,13.6,80.7,0C61.6,13.7,47.9,27.4,38.3,40.8
					C54.4,45.7,68.4,53.6,80.3,64.4z"/>
				<path d="M114.8,226.4c7.4,3.5,15.8,6.6,24.9,8.5c-1.8-9.1-4.9-17.5-8.4-24.9c-4.9,1.3-9.5,2.2-13.7,2.8
					C117,216.9,116.1,221.5,114.8,226.4z"/>
				<path class="st1" d="M106.7,514.4h45.3c3.2-23.7-0.5-42.5-11.1-55.9l-1.2-1.5l-1.6,1.1c-9.1,6-19.7,10.2-31.5,12.4l-1.4,0.3
					l-0.3,1.4c-2.2,11.9-6.4,22.4-12.4,31.5l-1.1,1.6l1.5,1.2C97,509.8,101.6,512.5,106.7,514.4z"/>
				<path class="st0" d="M231,370.7c11.8-4.7,24.1-7.3,36.6-7.8c0.6-12.5,3.2-24.6,7.8-36.4c-12.4-0.8-26.4,0-42.2,2.6
					C230.8,344.7,230.1,358.4,231,370.7z"/>
				<path class="st6" d="M69.2,386.5l-1.5-1.2c-13.7-10.8-33-14.5-57.5-10.9l-1.6,0.2l-0.2,1.6c-3.4,24.3,0.4,43.5,11.3,57.2
					l1.2,1.5l1.6-1.1c9.1-6,19.7-10.2,31.6-12.3l1.5-0.3l0.3-1.5c2.2-11.9,6.3-22.5,12.3-31.6L69.2,386.5z"/>
				<path class="st2" d="M214.9,217.4c13.4-9.6,27.1-23.3,40.8-42.4c-13.6-18.7-27.3-32.2-40.6-41.6c-4.9,16.1-12.9,30.2-23.8,42.1
					C202.1,187.3,210.1,201.3,214.9,217.4z"/>
				<path class="st4" d="M155.5,295.2c12.2,0.8,26,0.2,41.6-2.3c2.6-15.8,3.4-29.8,2.6-42.2c-11.7,4.7-23.9,7.3-36.3,7.8
					C162.8,271.1,160.2,283.4,155.5,295.2z"/>
			</g>
			<g>
				<path class="st1" d="M255,432.1c7.7-5.7,15.8-10.2,23.7-13.6c-4.5-10-8.2-21.3-10.1-33.8c-10.8,0.5-22.2,3-34,8.4
					C238.8,409.6,246.1,422.3,255,432.1z"/>
				<path class="st5" d="M169,514.4h41.7c0.1-1.1,0.2-2.2,0.4-3.2c-2.2-1.3-4.4-2.8-6.5-4.3c-0.8-0.6-1.6-1.2-2.4-1.8
					c-1.3-0.9-2.6-1.9-3.9-2.9c-1-0.8-2-1.6-3-2.4c-1.1-0.8-2.1-1.7-3.1-2.6c-1.1-1-2.3-2-3.4-3c-0.8-0.7-1.6-1.5-2.4-2.3
					c-1.3-1.2-2.6-2.4-3.9-3.7c-0.4-0.4-0.9-0.9-1.3-1.3c-5.3-5.3-10.4-11.1-15.5-17.4c0,0,0,0-0.1-0.1
					C169.7,482.4,170.9,497.4,169,514.4z"/>
				<path class="st7" d="M366.5,405.9c-8.5,5.9-14,11.2-15.8,13c-1.8-1.8-7.4-7.1-15.9-13c-0.1,0.3-0.1,0.7-0.2,0.9
					c-2,10.3-2.3,18.2-2.3,20.7c-2.5,0-10.4,0.3-20.7,2.3c-0.4,0.1-0.8,0.2-1.2,0.2c5.8,8.4,11,14,12.8,15.8
					c-1.7,1.8-6.9,7.3-12.6,15.6c0.5,0.1,0.9,0.2,1.4,0.3c10.3,1.9,18.2,2.1,20.7,2.2c0,2.5,0.2,10.3,2.1,20.7
					c0.1,0.5,0.2,0.9,0.3,1.4c8.3-5.8,13.8-10.9,15.6-12.6c1.8,1.7,7.3,6.9,15.6,12.6c0.1-0.5,0.2-0.9,0.3-1.4
					c1.9-10.3,2.1-18.2,2.1-20.7c2.5,0,10.4-0.2,20.7-2.1c0.4-0.1,0.8-0.2,1.2-0.2c-5.9-8.4-11.1-13.9-12.9-15.7
					c1.8-1.8,7.1-7.4,13-15.8c-0.3-0.1-0.6-0.1-0.9-0.2c-10.3-2-18.2-2.3-20.7-2.3c0-2.5-0.3-10.4-2.3-20.7
					C366.7,406.6,366.6,406.2,366.5,405.9z"/>
				<path class="st1" d="M336.8,350.3c-9.8-8.9-22.5-16.3-39-20.6c-5.4,11.9-7.9,23.4-8.3,34.2c12.4,1.9,23.8,5.6,33.7,10.2
					C326.6,366.1,331.1,358,336.8,350.3z"/>
				<path class="st2" d="M401.6,411.4c3.5-7.4,6.6-15.8,8.5-24.9c-9.1,1.9-17.5,4.9-24.9,8.5c1.2,4.9,2.2,9.5,2.8,13.6
					C392.2,409.2,396.7,410.1,401.6,411.4z"/>
				<path class="st1" d="M446.3,459.8c-7.8,5.7-15.9,10.1-23.9,13.6c4.6,10,8.3,21.4,10.2,33.8c10.9-0.5,22.3-2.9,34.2-8.3
					C462.7,482.3,455.2,469.5,446.3,459.8z"/>
				<path class="st3" d="M356.8,514.4c1.1-2.2,2-4.3,2.9-6.5c-3.3-2.1-6.3-4.1-9-6.1c-2.7,2-5.8,4-9.1,6.1c0.9,2.1,1.8,4.3,2.9,6.5
					H356.8z"/>
				<path class="st0" d="M341.5,384c3.4,2.1,6.5,4.3,9.2,6.3c2.8-2,5.9-4.2,9.2-6.3c-2.4-5.8-5.4-11.7-9.2-17.5
					C346.9,372.3,343.8,378.2,341.5,384z"/>
				<path class="st8" d="M350.7,334.9c11.9-10.9,25.9-18.8,41.9-23.7c-9.6-13.4-23.3-27.1-42.3-40.7c-18.7,13.6-32.2,27.3-41.6,40.6
					C324.7,316,338.7,324,350.7,334.9z"/>
				<path d="M231.2,370.6c11.7-4.7,23.9-7.3,36.3-7.8c0.6-12.6,3.2-24.8,7.8-36.6c-12.2-0.8-26-0.2-41.6,2.3
					C231.2,344.3,230.5,358.3,231.2,370.6z"/>
				<path class="st0" d="M385,496.9c7.5,3.5,15.9,6.6,25.1,8.4c-1.9-9.2-5-17.6-8.6-25.1c-4.9,1.2-9.6,2.1-13.7,2.8
					C387.2,487.3,386.3,491.9,385,496.9z"/>
				<path class="st1" d="M422.5,418.4c8,3.4,16.1,7.9,23.8,13.6c8.9-9.7,16.2-22.4,20.4-39c-11.8-5.4-23.2-7.9-34-8.4
					C430.8,397.1,427,408.5,422.5,418.4z"/>
				<path class="st2" d="M299.6,411.4c4.9-1.2,9.5-2.2,13.7-2.8c0.7-4.1,1.6-8.7,2.8-13.6c-7.4-3.6-15.8-6.6-24.9-8.5
					C293.1,395.6,296.1,404,299.6,411.4z"/>
				<path class="st2" d="M470.1,370.6c0.8-12.3,0-26.3-2.6-42.2c-15.6-2.5-29.5-3.1-41.7-2.3c4.7,11.8,7.4,24,7.9,36.6
					C446.3,363.4,458.4,366,470.1,370.6z"/>
				<path class="st0" d="M359.3,424.1c0.1,1.6,0.1,2.8,0.1,3.6l0.2,9.4l9.4,0.1c0.7,0,1.9,0,3.6,0.1c-0.8,0.8-1.4,1.4-1.7,1.8
					l-6.8,6.8l6.8,6.8c0.2,0.2,0.7,0.7,1.4,1.5c-1.7,0.1-2.9,0.1-3.6,0.1l-9.6,0l0,9.6c0,0.7,0,2.1-0.1,4c-0.7-0.7-1.2-1.1-1.5-1.4
					l-6.8-6.7c0,0-7.6,7.4-8.3,8.1c-0.1-2.1-0.1-3.5-0.1-4l0-9.6l-9.6,0c-0.7,0-2.1,0-4-0.1c0.6-0.7,8.1-8.3,8.1-8.3l-6.7-6.8
					c-0.3-0.3-0.8-0.9-1.7-1.8c1.9-0.1,3.3-0.2,4-0.2l9.5-0.1l0.1-9.5c0-0.7,0-1.9,0.1-3.6c0.9,0.8,1.5,1.4,1.8,1.7l6.8,6.8l6.8-6.8
					C357.8,425.4,358.4,424.8,359.3,424.1z"/>
			</g>
		</g>
	</g>
</g>
</svg>
